<svg id="Layer_1" data-name="Layer 1" xmlns="http://www.w3.org/2000/svg" viewBox="0 0 426.88 146.32"><defs><style>.cls-1{fill:#a33948;}</style></defs><title>Untitled-1</title><path class="cls-1" d="M426.09,91.43c0,2.45-.55-20.15-.62-34-.07-13.11.79-26.25-.49-39.35a7.61,7.61,0,0,1,.1-1.25c.12-2.21.34-4.43.32-6.64,0-3.41-.21-6.82-.36-10.23H.44C.29,4.14,0,8.28,0,12.42c0,3.42.54,6.85.57,10.28,0,1.74,0,3.48,0,5.22,0,17.91,0,31.26,0,18.25,0-5.51,0-11,0-16.54,0,9,0,18,0,27,0,8.57,0,10.19,0,10.44,0-.11,0,.17,0,10.46,0,.81,0,1.61.06,2.42l.6,36.2q-.07,11.26,0,22.53a47.12,47.12,0,0,0,1,6.82c2.71.87,5.06.51,7.45.28a73.44,73.44,0,0,1,8.77-.39c2.65.05,5.29.67,7.94.72,6.29.13,12.59-.13,18.87.14s12.47-1.07,18.71-.11a4.29,4.29,0,0,0,.8,0c3.81-.22,7.61-.61,11.41-.64,11-.08,22,0,32.94,0s21.88,0,32.81,0c4,0,8-.38,12-.62,7.18-.44,14.34.57,21.54.13,6.67-.41,13.39-.09,20.08-.06s13.39.09,20.09.1,13.66-.08,20.48-.09,13.4-.09,20.09.09,13.28-.39,19.94-.06c4.91.24,9.85-.44,14.78-.54,2.25-.05,4.51.48,6.77.46,4.08,0,8.17-.41,12.25-.41q46,0,92,.07c1.86,0,3.73-.26,5.6-.25,4.24,0,8.49,0,12.74.19,2,.08,4,.52,6-1.54.19-2.25.62-4.87.59-7.48-.09-7.45-.29-14.91-.54-22.36C426.1,106,426.35,98.63,426.09,91.43ZM1.31,76.4l-.11,0c0-1.4,0-3,0-4.65q.08-1.25.09-2.49c0,1.27,0,1.76,0,1.89Z"/></svg>