<svg id="Layer_1" data-name="Layer 1" xmlns="http://www.w3.org/2000/svg" viewBox="0 0 170.78 156.75"><defs><style>.cls-1{fill:#414142;}</style></defs><title>Untitled-1</title><path class="cls-1" d="M170.62,147.49c-.44-1.89-.89-3.77-1.3-5.67-.57-2.58-1.1-5.18-1.64-7.77q-1.62-7.73-3.23-15.46c-.8-3.83-1.62-7.66-2.41-11.5-.83-4-1.63-8.07-2.46-12.1-.18-.89-.46-1.76-.65-2.65-.63-3.06-1.22-6.13-1.86-9.19-.8-3.8-1.64-7.58-2.44-11.38-.62-3-1.2-6-1.81-8.95-.82-3.91-1.67-7.82-2.47-11.73-1-4.69-1.89-9.39-2.83-14.09-.34-1.66-.69-3.33-1-5-.5-2.56-1-5.13-1.48-7.69-.29-1.43-.65-2.84-.93-4.27-.34-1.74-.6-3.51-1-5.25-.94-4.53-1.92-9.06-2.88-13.59-.23-1-.4-1.22-1.54-1.2-.95,0-1.89.16-2.84.17-4,.08-8,.11-12,.19-3.8.07-7.6.17-11.4.26L101.79.88c-1.22,0-2.45,0-3.68,0-3.76.12-7.52.28-11.28.39-4.58.15-9.17.26-13.75.4-3.12.1-6.24.24-9.36.33s-6.09.18-9.14.25c-2.06,0-4.12,0-6.18.1-4.11.13-8.23.27-12.34.45A28.77,28.77,0,0,0,33,3.17,1.25,1.25,0,0,0,32,4.3c-.33,1.63-.65,3.25-1,4.87-.91,4-1.82,8-2.78,12-1,4.32-2.11,8.61-3.13,12.92-.73,3-1.37,6.1-2.09,9.14-.88,3.65-1.79,7.3-2.69,11-.76,3.11-1.53,6.23-2.29,9.34C17.3,66.28,16.64,69,16,71.75c-.35,1.54-.59,3.11-1,4.65-.64,2.61-1.34,5.21-2,7.82L9.48,98.37C8.33,102.93,7.19,107.5,6,112.06c-.65,2.61-1.35,5.21-2,7.82-.6,2.42-1.1,4.86-1.71,7.28C1.66,129.88.9,132.59.2,135.31a6.66,6.66,0,0,0-.2,1.4c0,1.26.35,1.62,1.62,1.57.19,0,.39-.06.58-.07l4-.34c.48,0,1,0,1.42-.06,1.58-.07,3.15-.2,4.73-.22s2.51,0,3-2.12a2.67,2.67,0,0,1,.11-.34,1.46,1.46,0,0,1,1.4-1.07c1.46-.11,2.91-.33,4.37-.41,3.84-.2,7.67-.36,11.51-.52,1.15,0,2.3,0,3.44-.11,2.68-.18,5.36-.44,8-.59,3.28-.18,6.56-.27,9.84-.4.82,0,1.19.16,1.41.95s.35,1.61.51,2.43q.86,4.49,1.69,9c.55,2.88,1.09,5.75,1.65,8.62.19,1,.41,1.94.64,2.9.18.73.37.85,1.16.85h2.14v-.1c.43,0,.87,0,1.3,0,2.06-.14,4.1-.33,6.16-.42,1.82-.09,2-.22,2-2.06a7.47,7.47,0,0,0-.09-.94c-.1-.79-.24-1.57-.29-2.36s.21-1.11,1-1.16q3.08-.22,6.15-.41c1.9-.12,3.8-.19,5.69-.31,3-.2,6-.45,9-.63,3.59-.21,7.19-.34,10.79-.55,4.54-.27,9.08-.6,13.62-.88,3.31-.19,6.63-.33,9.94-.51,3.63-.21,7.26-.47,10.9-.67,2.45-.13,4.9-.22,7.35-.31s4.75-.17,7.13-.21c1,0,1.4.33,1.62,1.34s.38,1.79.6,2.67c.28,1.14.53,1.27,1.66,1.17,1.85-.16,3.7-.31,5.56-.41,2-.12,4.11-.16,6.16-.26,1,0,1.32-.4,1.24-1.43A7.4,7.4,0,0,0,170.62,147.49Zm-3.13.77c-.4,0-.8,0-1.19.05-2.29.14-4.58.32-6.87.43-1.43.06-1.6-.12-1.92-1.52-.2-.84-.35-1.7-.54-2.55-.26-1.17-.53-1.4-1.71-1.32-2.72.17-5.44.38-8.17.55-3.67.23-7.34.42-11,.65-3,.2-6.07.44-9.11.65-1.46.1-2.92.15-4.38.23l-13,.75c-2.85.16-5.69.3-8.53.48-3,.2-6.08.45-9.12.63-2.44.15-4.89.26-7.33.36-1.9.08-3.8.1-5.7.2-2.56.14-5.13.32-7.69.5-1,.07-1.16.34-1,1.32s.38,2.1.58,3.15c.24,1.27,0,1.79-1.27,1.88-2.21.17-4.43.22-6.64.32a1.13,1.13,0,0,1-1.2-.78,8.56,8.56,0,0,1-.47-1.46c-.4-2.14-.74-4.29-1.15-6.42-.62-3.23-1.29-6.44-1.9-9.67s-1.13-6.23-1.69-9.34c-.82-4.52-1.61-9-2.44-13.56-.48-2.65-1-5.28-1.52-7.93-.38-2.06-.69-4.13-1.07-6.2-.44-2.41-.94-4.81-1.38-7.23-.55-3-1-6-1.59-9-.49-2.65-1.06-5.28-1.56-7.93-.36-1.86-.63-3.74-1-5.61-.39-2.09-.85-4.18-1.23-6.28-.49-2.69-.93-5.38-1.4-8.07-.12-.66-.31-1.31-.44-2-.6-3.11-1.2-6.21-1.77-9.33s-1-6-1.55-9c-.41-2.3-.88-4.58-1.28-6.88-.63-3.63-1.22-7.26-1.83-10.88-.23-1.37-.51-2.72-.74-4.09-.42-2.42-.84-4.83-1.23-7.25-.18-1.11,0-1.35,1.14-1.4l8-.32v0c4.08-.09,8.17,0,12.23-.3,5-.34,10.05-.31,15.07-.44a37.4,37.4,0,0,0,4.6-.3,43.4,43.4,0,0,1,5-.15c2.93-.11,5.85-.28,8.78-.37s5.77-.05,8.65-.14,5.6-.27,8.41-.37c1.46,0,2.93,0,4.39,0,2.1-.05,4.19-.16,6.29-.2,3.08-.06,6.17-.06,9.25-.12,2.06,0,4.12-.13,6.17-.17,1.51,0,3,0,4.52,0a1.74,1.74,0,0,1,2,1.56c.45,2.16,1,4.31,1.43,6.48.61,2.91,1.15,5.82,1.74,8.73.29,1.4.68,2.77,1,4.16.25,1.24.39,2.5.62,3.75.48,2.61,1,5.21,1.49,7.81.72,3.49,1.51,6.95,2.23,10.44.88,4.22,1.71,8.45,2.55,12.68.88,4.42,1.72,8.86,2.63,13.27.48,2.33,1.09,4.62,1.6,6.94.33,1.51.58,3,.9,4.54.49,2.32,1,4.63,1.52,7,.12.54.14,1.11.25,1.65.8,3.87,1.63,7.73,2.42,11.6.48,2.37.91,4.74,1.4,7.11.28,1.39.62,2.77.94,4.16,0,.23.12.46.16.69.25,1.37.47,2.73.74,4.09.57,2.79,1.15,5.58,1.76,8.36q1.15,5.34,2.35,10.67c.42,1.85.87,3.69,1.3,5.54.25,1.12.5,2.24.74,3.36a2.88,2.88,0,0,1,.06.59C168.67,147.88,168.41,148.17,167.49,148.26Z"/></svg>