<?xml version="1.0" standalone="no"?>
<!DOCTYPE svg PUBLIC "-//W3C//DTD SVG 20010904//EN"
 "http://www.w3.org/TR/2001/REC-SVG-20010904/DTD/svg10.dtd">
<svg version="1.0" xmlns="http://www.w3.org/2000/svg"
 width="912.000000pt" height="912.000000pt" viewBox="0 0 912.000000 912.000000"
 preserveAspectRatio="xMidYMid meet">
<metadata>
Created by potrace 1.14, written by Peter Selinger 2001-2017
</metadata>
<g transform="translate(0.000000,912.000000) scale(0.100000,-0.100000)"
fill="#000000" stroke="none">
<path d="M4749 9115 c-2 -1 -21 -6 -42 -9 -84 -13 -264 -90 -275 -118 -2 -4
-9 -8 -15 -8 -18 0 -126 -106 -188 -185 -94 -118 -197 -308 -263 -482 -9 -24
-14 -43 -11 -43 2 0 0 -11 -5 -26 -6 -14 -12 -37 -14 -52 -2 -15 -8 -47 -12
-72 -4 -25 -9 -56 -11 -70 -7 -41 -18 -340 -13 -360 0 -3 3 -45 5 -95 5 -90
11 -164 19 -220 2 -16 7 -59 11 -95 4 -36 9 -68 11 -71 2 -3 6 -24 9 -45 6
-50 9 -62 40 -169 14 -49 27 -95 29 -102 1 -7 5 -16 9 -19 4 -4 7 -13 7 -21 0
-22 99 -223 148 -298 76 -119 162 -214 283 -315 29 -25 65 -56 79 -70 14 -13
25 -22 25 -20 0 2 29 -16 65 -40 98 -68 244 -145 297 -156 6 -1 27 -7 45 -12
77 -25 237 -34 318 -19 162 30 325 121 464 260 176 175 302 433 352 717 25
146 35 425 19 565 -4 33 -8 80 -10 105 -2 25 -4 45 -5 45 -1 0 -3 11 -6 25 -2
14 -9 54 -15 90 -6 36 -13 72 -14 80 -2 8 -9 35 -16 60 -7 25 -14 51 -16 58
-7 27 -10 38 -16 52 -3 8 -17 50 -32 94 -39 118 -163 397 -184 416 -4 3 -27
37 -53 76 -113 170 -318 361 -479 447 -66 35 -196 79 -274 94 -29 5 -262 13
-266 8z"/>
<path d="M1888 8015 c-2 -1 -29 -5 -62 -9 -83 -9 -133 -25 -196 -64 -137 -85
-310 -300 -361 -448 -7 -21 -13 -41 -14 -44 0 -3 -3 -10 -7 -15 -10 -16 -36
-124 -45 -185 -9 -59 -9 -363 0 -420 3 -19 8 -47 11 -62 3 -16 8 -40 11 -55 3
-16 11 -46 17 -68 6 -22 12 -45 14 -51 5 -27 18 -65 50 -151 20 -51 36 -96 36
-100 2 -12 121 -240 157 -302 57 -95 178 -264 244 -339 47 -53 225 -231 274
-273 66 -57 231 -179 243 -179 5 0 10 -4 10 -10 0 -5 6 -10 14 -10 8 0 16 -3
18 -8 5 -12 159 -80 233 -101 39 -12 105 -27 148 -34 77 -13 277 -15 327 -3
13 3 42 8 65 11 38 6 92 20 125 32 8 4 17 7 20 8 81 28 225 138 295 225 84
104 148 259 191 465 19 94 19 272 -2 445 -8 72 -9 80 -17 115 -4 17 -10 41
-13 55 -3 14 -6 30 -8 35 -1 6 -6 26 -10 45 -10 42 -50 165 -78 234 -23 61
-110 249 -118 256 -3 3 -14 21 -24 40 -33 60 -128 205 -137 208 -5 2 -9 8 -9
13 0 10 -4 15 -86 114 -56 67 -244 258 -244 248 0 -2 -8 3 -17 13 -52 52 -283
204 -310 204 -6 0 -13 4 -15 8 -9 24 -250 110 -368 133 -25 4 -56 11 -70 14
-26 6 -286 15 -292 10z"/>
<path d="M7568 7395 c-1 -1 -30 -5 -63 -8 -166 -16 -405 -141 -560 -294 -86
-84 -165 -176 -165 -192 0 -6 -4 -11 -8 -11 -4 0 -24 -27 -43 -60 -18 -33 -37
-60 -41 -60 -5 0 -8 -5 -8 -11 0 -6 -18 -48 -40 -92 -85 -175 -142 -380 -166
-597 -13 -115 -6 -420 9 -420 5 0 6 -4 3 -9 -3 -5 -1 -33 5 -62 6 -30 13 -66
15 -82 3 -15 16 -64 30 -110 14 -45 27 -89 29 -97 2 -8 4 -16 5 -17 2 -2 3 -6
4 -10 8 -47 144 -333 157 -333 5 0 8 -3 7 -7 -8 -23 119 -194 215 -291 165
-168 367 -260 562 -256 230 5 415 98 595 302 36 40 71 79 78 87 6 7 12 18 12
23 0 5 9 17 20 27 11 10 20 24 20 31 0 7 4 14 8 16 19 8 120 201 167 318 68
171 113 350 132 530 14 130 6 446 -12 510 -3 8 -7 31 -9 51 -9 69 -60 251 -98
349 -57 149 -180 377 -210 388 -4 2 -8 9 -8 16 0 6 -8 19 -17 27 -10 9 -36 36
-58 59 -88 95 -249 207 -355 246 -50 18 -62 21 -135 29 -27 3 -55 8 -62 10 -6
2 -13 2 -15 0z"/>
<path d="M1085 4872 c-48 -5 -166 -41 -215 -65 -101 -48 -194 -127 -249 -212
-14 -22 -28 -42 -31 -45 -12 -12 -74 -148 -87 -194 -18 -59 -21 -75 -37 -171
-1 -5 -4 -14 -7 -20 -8 -13 -4 -321 5 -360 3 -16 8 -41 10 -55 24 -162 164
-464 288 -625 137 -177 348 -398 463 -486 93 -70 195 -140 195 -132 0 3 8 -1
18 -10 16 -15 197 -105 214 -107 4 0 28 -9 53 -20 25 -11 49 -20 53 -21 4 -1
12 -3 17 -4 12 -4 103 -25 130 -31 127 -27 401 -24 479 6 12 4 23 8 26 8 39 3
161 50 172 66 4 6 8 7 8 3 0 -21 160 122 160 144 0 4 7 14 15 22 16 17 78 145
78 165 0 6 4 12 8 12 3 0 9 8 12 18 3 9 15 44 27 77 12 33 23 67 25 75 2 8 11
44 21 80 9 36 18 83 20 105 1 22 4 42 4 45 12 35 -14 227 -47 340 -18 62 -82
222 -91 230 -11 8 -63 110 -56 110 3 0 -4 12 -15 26 -12 15 -21 31 -21 36 0 5
-8 21 -19 36 -10 15 -36 54 -57 87 -32 50 -83 119 -164 219 -42 52 -198 202
-272 260 -46 36 -88 70 -94 75 -7 6 -43 29 -81 53 -38 24 -78 49 -89 55 -122
78 -333 154 -549 198 -34 7 -275 13 -320 7z"/>
<path d="M5219 4576 c-2 -2 -29 -7 -60 -10 -31 -4 -67 -9 -80 -11 -13 -3 -37
-8 -54 -11 -16 -2 -48 -10 -70 -16 -22 -6 -49 -13 -59 -15 -11 -2 -59 -19
-107 -38 -47 -19 -91 -35 -97 -35 -6 0 -12 -3 -14 -7 -1 -5 -38 -25 -81 -47
-88 -43 -300 -182 -354 -231 -12 -11 -38 -33 -58 -50 -83 -68 -214 -205 -302
-316 -67 -84 -203 -288 -203 -305 0 -7 -4 -14 -9 -16 -9 -3 -151 -278 -151
-291 0 -4 -11 -31 -25 -61 -14 -30 -25 -60 -25 -65 0 -6 -5 -19 -10 -29 -12
-19 -68 -183 -76 -221 -3 -14 -7 -28 -10 -33 -3 -4 -7 -16 -9 -26 -1 -9 -9
-37 -15 -62 -7 -25 -14 -52 -15 -60 -1 -8 -5 -22 -8 -30 -8 -22 -27 -101 -32
-132 -4 -29 -22 -127 -30 -168 -3 -14 -8 -49 -11 -79 -3 -30 -8 -64 -10 -75
-2 -12 -7 -48 -10 -81 -3 -33 -7 -75 -10 -93 -2 -18 -7 -104 -11 -190 -16
-393 -1 -718 42 -907 8 -33 16 -71 19 -85 2 -14 9 -37 15 -52 6 -16 8 -28 5
-28 -2 0 2 -13 11 -30 8 -16 16 -32 16 -35 0 -7 28 -76 47 -115 53 -108 172
-249 280 -329 88 -65 234 -134 342 -163 64 -16 114 -22 200 -22 165 0 249 17
378 75 34 16 64 29 66 29 2 0 35 19 72 41 169 102 240 161 265 218 8 17 17 31
21 31 5 0 8 7 8 15 0 9 5 21 10 28 6 7 43 62 82 122 40 61 77 115 82 121 6 6
18 22 26 34 8 12 20 28 25 34 6 6 28 34 50 61 43 54 257 272 315 321 121 101
258 193 380 255 52 26 102 49 110 51 8 2 17 5 20 8 7 8 197 68 254 80 146 32
346 33 501 4 17 -3 37 -5 45 -6 12 0 296 -64 373 -84 9 -2 25 -6 35 -8 9 -2
44 -11 77 -19 33 -9 72 -18 88 -21 15 -4 39 -9 55 -12 15 -3 38 -7 52 -9 14
-2 25 -4 25 -5 0 -1 9 -3 20 -5 11 -1 47 -6 80 -11 97 -14 350 -9 385 7 3 1
10 3 15 4 56 8 224 90 267 130 15 14 29 25 32 25 3 0 22 17 42 38 108 110 182
250 220 413 11 45 13 264 4 309 -5 25 -12 56 -15 70 -7 38 -42 140 -61 185
-10 22 -18 42 -19 45 -4 14 -70 146 -76 150 -3 3 -15 21 -25 40 -24 44 -66
104 -76 108 -4 2 -8 8 -8 14 0 11 -81 109 -134 164 -17 17 -65 67 -107 110
-134 138 -414 384 -437 384 -6 0 -12 4 -14 9 -4 12 -203 160 -241 180 -15 8
-27 18 -27 23 0 4 -5 8 -10 8 -6 0 -20 9 -32 20 -12 11 -28 20 -35 20 -7 0
-13 4 -13 8 0 5 -16 17 -35 28 -19 10 -35 23 -35 28 0 5 -3 7 -6 3 -3 -3 -27
9 -53 27 -72 50 -253 157 -356 210 -22 12 -42 23 -45 26 -19 22 -566 278 -605
284 -5 1 -16 5 -22 9 -7 5 -13 6 -13 2 0 -3 -12 1 -27 8 -29 15 -213 69 -248
73 -11 1 -20 3 -20 4 0 1 -8 3 -19 5 -10 2 -39 8 -65 14 -25 6 -66 14 -91 17
-25 3 -58 8 -75 11 -36 5 -401 14 -406 9z"/>
</g>
</svg>
