<svg height="100%" id="Layer_1" data-name="Layer 1" xmlns="http://www.w3.org/2000/svg" viewBox="0 0 1050.91 4" preserveAspectRatio="none"><defs><style>.cls-1{fill:#404041;}</style></defs><title>frame</title><path class="cls-1" d="M262.06,0Q232,0,202,.07c-1.32,0-2.64.19-4,.29a9,9,0,0,1-2,.13c-5.78-.9-11.66.78-17.43-.29-4.38.79-8.71-.37-13.1-.18C143.11,1,120.68.4,98.27.61c-3.34,0-6.68,0-10,0-2.66,0-5.3.29-8,.35-2,0-4-.05-6-.12-.65,0-1.32-.25-2-.21C60,1.56,48.43.61,36,.71,24.31.79,11.73.6,0,.63V4c6.42,0,8-.78,14.27-.15a5.36,5.36,0,0,0,.8,0c3.79-.15,7.58-.42,11.38-.44,11-.07,21.9-.06,32.85-.06s21.81,0,32.72-.07c4,0,8-.27,11.93-.43,7.16-.31,14.3.35,21.49,0,6.65-.28,13.34-.08,20-.08s13.36,0,20,0,13.62-.07,20.43-.09,13.36-.08,20,0,13.25-.28,19.89-.08c4.9.15,9.82-.31,14.74-.38,2.25,0,4.5.31,6.75.29,4.07,0,8.15-.28,12.22-.29C290.13,2.24,1020.33,4,1050.91,4V.68C895,.41,291.53,0,262.06,0Z"/></svg>