<svg width="100%" id="Layer_1" data-name="Layer 1" xmlns="http://www.w3.org/2000/svg" viewBox="0 0 4 546.67" preserveAspectRatio="none"><defs><style>.cls-1{fill:#404041;}</style></defs><title>frame</title><path class="cls-1" d="M3.77,516.77c-.07-4.58-.18-9.64-.2-14.22-.08-13.92.18-50.68,0-77.17-.08-12.81-.18-25.53-.13-39.51,0-.4.06-.81.07-1.22.09-2.16.26-4.32.24-6.48,0-3.66-.19-7.31-.33-11-.24-6.65.42-13.29,0-19.95-.32-5.26.08-10.54,0-15.83-.2-15.83-.1-31.68-.09-47.51q0-57.11,0-114.22c0-19.93.14-39.76.14-59.69,0-36.16.32-73.5.46-110H1V1.18c0,4-.46,7.87-.4,11.91,0,1.06-.1,4.35-.09,5.41,0,4.9-.46,8.17-.41,13.07,0,.93-.12,1.86-.12,2.79,0,2.57.72,3.12.77,5.7,0,.67.18,3.4.13,4-1,15-.24,30-.47,45-.11,7-.12,15.08,0,22,.06,5,.32,10,.43,15,.07,3.65,0,7.3,0,11q0,12,0,24.06c0,10.78.06,21.57,0,32.36,0,5.11-.37,10.22-.39,15.34,0,4.2.31,8.41.37,12.61,0,1.89-.21,3.79-.33,5.68a18.19,18.19,0,0,0-.11,2.44C1.3,240.72.88,251.87.6,263c-.12,4.88.22,9.78.25,14.67,0,2-.23,4.05-.33,6.08a9.31,9.31,0,0,0,0,2.42,11.06,11.06,0,0,1,0,5.21,10,10,0,0,0-.11,2.85c.7,10.56.53,21.15.47,31.74,0,6.1.11,12.2.05,18.3-.12,12.93,0,25.86,0,38.79s0,25.67,0,38.51c0,3.91.49,7.82,0,11.74a23.77,23.77,0,0,0,.21,3.23c.05,1.34-.49,1.5-.51,2.84,0,1.75-.1,3.5-.13,5.26,0,1.18,0,2.37,0,3.55a19.84,19.84,0,0,0-.07,3.26,39,39,0,0,1,.06,7.64c-.2,4.94.2,9.93.33,14.9a24.52,24.52,0,0,1-.11,2.84,8.65,8.65,0,0,0-.28,2,14.23,14.23,0,0,1,.25,1.57c-.12,1.9-.14,3.8-.1,5.7a23.66,23.66,0,0,0,.22,7.65,3.19,3.19,0,0,1,.09.7c0,.08-.17,2.05-.2,2.93,0,1.45,0,2.91,0,4.36s0,2.93-.08,4.4c0,.53-.17,1.08-.15,1.61.12,3.06.28,6.12.41,9.19,0,.19.13,1.63.26,4.29.22,4.29-.76,8.63.38,12.89.25.94-.68,2.7-.71,3.79,0,1.32,0,2.65,0,4A13.1,13.1,0,0,1,1,544.71a13.48,13.48,0,0,0-.3,2H4v0C4,540.4,3.86,523,3.77,516.77Z"/></svg>