<svg height="100%" id="Layer_1" data-name="Layer 1" xmlns="http://www.w3.org/2000/svg" viewBox="0 0 1050.67 4" preserveAspectRatio="none"><defs><style>.cls-1{fill:#404041;}</style></defs><title>frame</title><path class="cls-1" d="M990.29.62c-6.59,0-13.18,0-19.76,0-2.21,0-4.42.33-6.61.28C958,.76,952,.36,946.08.56A55.91,55.91,0,0,1,936.93.5,28.23,28.23,0,0,0,933,.57c-1.42,0-2.84,0-4.26,0-2.1,0-4.19.09-6.29.12-1.6,0-1.8.56-3.4.51A33.89,33.89,0,0,0,915.23,1c-4.7.45-9.38-.05-14.06,0l-46.09,0c-15.48,0-31-.15-46.44,0C801.34,1,794,.83,786.73.86c-12.67.06-25.35.23-38-.47a14.22,14.22,0,0,0-3.4.11,15.79,15.79,0,0,1-6.24,0,13.35,13.35,0,0,0-2.9,0c-2.43.1-4.85.35-7.28.33C723.06.82,717.2.48,711.36.6c-9.72.2-19.44.48-29.16.28C678.77.8,675.34.59,671.9.52S665,.89,661.59.85c-5-.06-10.07-.38-15.1-.37-6.13,0-12.25.37-18.37.39-12.91.06-25.82,0-38.74,0H560.59c-4.37,0-8.75,0-13.11,0-6-.11-12-.37-17.94-.43-8.33-.09-18-.08-26.38,0-18,.23-35.92-.58-53.86.47-.78,0-4.05-.12-4.85-.13-3.09-.05-3.61-.08-6.69-.09-1.11,0-2.49-.09-3.6-.1-5.87-.06-9.65,0-15.52,0-1.27,0-5.2.1-6.47.09-4.84-.06-9.42.37-14.25.4C397.44,1,397,1,396.5,1,331.17,1,287.41.9,280.19.74,263.27.36,246.31.63,229.37.61H202.05q-13.43,0-26.85,0-13.66,0-27.33,0l-27.33,0c-9,0-17.9-.08-26.85,0C75.58.75,57.49.13,39.39.09Q29.31.06,19.24,0C12.88,0,6.51,0,.15,0H0V3.32c2.68,0,9.1-.48,11.77-.4,19.21.54,38.49.14,57.72.24,11.74.06,23.46.21,35.19.21,7.63-.3,15.22.17,22.84.07s15.34,0,23,0l23,.06,23,0q45,0,90,0c2.05,0,4.1.24,6.16.33a24.39,24.39,0,0,0,3.81.09,38.83,38.83,0,0,1,11.34,0,1.3,1.3,0,0,0,.48,0c4.58-1,9.15.06,13.73,0,10.23,0,20.46,0,30.69,0L396.5,4c43.67-.14,88.43-.42,131.68-.43,23.87,0,47.6-.14,71.46-.14l136.72,0c19,0,37.92-.11,56.87.09,6.33.06,12.66-.34,19,0,8,.42,15.92-.24,23.87,0,4.37.14,8.75.29,13.12.33,2.59,0,5.18-.15,7.77-.24.48,0,1-.07,1.45-.07,16.74-.05,32,0,47.29.13,31.71.15,75.71-.11,92.38,0,5.48,0,11.54.13,17,.2,7.47.09,28.1-.41,35.58-.4,0,0,0,.63,0,.63V0C1049.81.06,994,.63,990.29.62Z"/></svg>