<svg id="Layer_1" data-name="Layer 1" xmlns="http://www.w3.org/2000/svg" viewBox="0 0 35 35"><defs><style>.cls-1{fill:#404041;}</style></defs><title>frame</title><path class="cls-1" d="M12.21,31a51,51,0,0,1-5.87-.73C4.39,28.31,4.1,28.34,4,26.29c-.15-3.11-.59-3.64-.32-6.7C4.05,15.48,3.85,11,4,6.94,4,6,3.87.92,4,0H0C.12,1.85,0,3.63,0,5.43c0,3.71.1,7.42.09,11.13,0,3,.85,5.77.38,8.85-.37,2.46.36,5.11.76,8a.84.84,0,0,0,.78.75,106.91,106.91,0,0,0,13.32.41c6.67-.39,7.32.23,19.66.47V31.63C27.4,31.52,19.81,31.13,12.21,31Z"/></svg>