<svg id="Layer_1" data-name="Layer 1" xmlns="http://www.w3.org/2000/svg" viewBox="0 0 35 35"><defs><style>.cls-1{fill:#404041;}</style></defs><title>frame</title><path class="cls-1" d="M22.79,4a51,51,0,0,1,5.87.73c1.95,1.92,3,2.24,3.09,4.28a81.29,81.29,0,0,1,.31,10.09c-.36,4.11.15,8.17,0,12.23,0,.93.09,2.71-.05,3.63h3c-.12-1.85,0-3.63,0-5.43,0-3.71-.1-7.42-.09-11.13,0-3-.85-5.77-.38-8.85.37-2.46-.36-5.11-.76-8A.84.84,0,0,0,33,.88,106.91,106.91,0,0,0,19.66.47C13,.86,12.34.24,0,0V3.37C7.6,3.48,15.19,3.87,22.79,4Z"/></svg>