<svg width="100%" id="Layer_1" data-name="Layer 1" xmlns="http://www.w3.org/2000/svg" viewBox="0 0 4 546.42" preserveAspectRatio="none"><defs><style>.cls-1{fill:#404041;}</style></defs><title>frame</title><path class="cls-1" d="M4,540.35C4,509.64,4,520.73,4,490q0-30.09-.07-60.18c0-1.76-.22-3.51-.33-5.26a14.3,14.3,0,0,1-.09-2.44,94.48,94.48,0,0,0,.16-17.07c-.11-1.58.42-3.28.24-4.82-.58-4.89.25-9.73,0-14.59-.11-2.15-.26-4.31-.39-6.46A6.32,6.32,0,0,1,3.42,378c.79-6.09-.27-12.16,0-18.26s0-12,.06-18c0-2.16.27-4.32.35-6.48a26.65,26.65,0,0,0-.16-2.82,10.1,10.1,0,0,1-.2-2.4c.51-2.71,0-5.37,0-8,0-3.23.19-6.45.18-9.67Q3.52,290,3.39,267.76c0-8.05,0-16.1-.09-24.15-.09-7.2.11-14.38,0-21.57-.07-4.7-.29-9.4-.41-14.1,0-1.22.11-2.44.13-3.67s0-2.66,0-4c0-.82-.18-1.64-.13-2.44.51-9.1-.18-18.19,0-27.29.16-11.69,0-23.38.07-35.07.05-8.5.3-17,.41-25.49.06-5.41,0-10.83,0-16.25,0-1.35-.21-2.69-.3-4A18.07,18.07,0,0,1,3,86.86c.72-7.88.42-15.77.21-23.66,0-.79.07-1.58,0-2.38-.06-2.7-.28-5.42-.18-8.11.18-4.73.08-9.44,0-14.16,0-2.66.49-5.35-.06-8a6.91,6.91,0,0,1-.09-2A97.29,97.29,0,0,0,3.06,11c-.19-2.81.26-5.69.24-8.54,0-.81.07-1.63,0-2.44H0C.05,23.17.55,31.77.55,55q0,46.07-.06,92.13c0,3.82,0,7.64-.06,11.46-.08,4.66-.33,9.32-.34,14,0,3.35.4,6.69.42,10,.07,11.05.06,22.1.07,33.16,0,20.88,0,41.75,0,62.63,0,3.8.36,7.59.36,11.38,0,4.57-.24,9.13-.36,13.69a14,14,0,0,0,.06,2.05,57.1,57.1,0,0,1,0,14.19,21.2,21.2,0,0,0,.1,3.64c.07,1.22.26,2.43.26,3.64,0,6.51,0,13,0,19.54.06,12-.07,23.93,0,35.9.06,9.53,0,19.06,0,28.58,0,15,0,30,0,45,.06,12.67.27,25.34.31,38,0,6.52-.39,13.2-.74,19.72s.2-2.15,0,17.85C.73,536.07,0,542,0,546.42H4C4,544.4,4,542.37,4,540.35Z"/></svg>