<svg id="Layer_1" data-name="Layer 1" xmlns="http://www.w3.org/2000/svg" viewBox="0 0 354.18 61.11"><defs><style>.cls-1{fill:#a33948;}</style></defs><title>Untitled-1</title><path class="cls-1" d="M352.69,1.74h-.44c-.68,0-1.36,0-2.05,0s-1.24,0-1.87,0c-1.29,0-2.59,0-3.88.05s-2.56.1-3.84.17l-3.1.17c-7.2.39-14.37.81-21.55-.24a16.37,16.37,0,0,0-3.21-.06c-4,.18-8,.62-12,.57-29.52-.35-59,.46-88.57-.79-14.17-.6-28.38-.24-42.58-.3-7.63,0-15.26-.05-22.89-.08l-22.5-.1L101.33,1C93.7,1,86.07,1,78.44.93s-15-.16-22.5,0S40.77.38,33.18.81a9.63,9.63,0,0,1-1.2,0C28.43.55,24.87.16,21.32.14L0,0v61H352.34c0-.32,0-.65,0-1q0-1.22-.06-2.43c0-.62,0-1.25,0-1.88.06-5.37.51-10.73.1-16.12,0-.2,0-.22,0-.07v-4L353,22.49c.15-3,.2-6.1.35-9.14.07-1.52.17-3,.31-4.56a41,41,0,0,0,.57-4.07v-3h-.79Z"/></svg>