<svg id="Layer_1" xmlns="http://www.w3.org/2000/svg" x="0px" y="0px"
	 viewBox="0 0 354.2 61.1" style="enable-background:new 0 0 354.2 61.1;" preserveAspectRatio="none">
<style type="text/css">
	.st0{fill:#A33948;}
</style>
<title>Untitled-1</title>
<path class="st0" d="M352.7,1.7h-0.4c-0.7,0-1.4,0-2,0s-1.2,0-1.9,0c-1.3,0-2.6,0-3.9,0s-2.6,0.1-3.8,0.2l-3.1,0.2
	c-7.2,0.4-14.4,0.8-21.5-0.2c-1.1-0.1-2.1-0.1-3.2-0.1c-4,0.2-8,0.6-12,0.6c-29.5-0.3-59,0.5-88.6-0.8C198,1,183.8,1.4,169.6,1.3
	c-7.6,0-15.3,0-22.9-0.1l-22.5-0.1L101.3,1c-7.6,0-15.3,0-22.9-0.1s-15-0.2-22.5,0S40.8,0.4,33.2,0.8c-0.4,0-0.8,0-1.2,0
	c-3.5-0.3-7.1-0.6-10.7-0.7L0,0v61.1h352.4c0-0.3,0-0.8,0-1.1c0-0.8,0-1.6-0.1-2.4c0-0.6,0-1.3,0-1.9c0.1-5.4,0.5-10.7,0.1-16.1
	c0-0.2,0-0.2,0-0.1v-4l0.6-13c0.1-3,0.2-6.1,0.4-9.1c0.1-1.5,0.2-3,0.3-4.6c0.3-1.3,0.4-2.7,0.6-4.1v-3h-0.8L352.7,1.7z"/>
</svg>
