<svg id="Layer_1" data-name="Layer 1" xmlns="http://www.w3.org/2000/svg" viewBox="0 0 103.19 114.39"><defs><style>.cls-1{fill:#414142;}</style></defs><title>Untitled-1</title><path class="cls-1" d="M97.68,75.86C91.85,69.51,83.31,64,75.56,60.34c-6.46-3.08-14-4.62-20.78-2.24A25.35,25.35,0,0,0,47,62.75c-8.28,7-11.87,18.63-12.34,29.15-.22,4.86-.33,11.22,1.79,15.7a12.11,12.11,0,0,0,8.62,6.59c4.23.82,7.61-1,10.89-3.43l.19-.22.44-.58.09-.13,0-.07C60.49,102.92,67.17,96.07,75.26,95c6.12-.83,12,2.56,18.13,2.58,7,0,11.17-6.46,9.4-13.08A21.08,21.08,0,0,0,97.68,75.86Z"/><path class="cls-1" d="M68.64,34.34a13.39,13.39,0,0,1-3.4,3.75c-5.75,4.26-11,1.52-15.63-2.64-3.4-3.07-5.23-7.57-5.86-12s-1-10.58.86-14.64C45.88,6,47.67,2.93,50.37,1.3c3.22-1.95,7.49-1.58,10.76.29A19,19,0,0,1,68.4,10a30.79,30.79,0,0,1,2.71,17.41A18.12,18.12,0,0,1,68.64,34.34Z"/><path class="cls-1" d="M33,50.47a13.94,13.94,0,0,1-9.93-1.63A31.36,31.36,0,0,1,10.78,33.77C8.58,28,8.31,20.93,13,16.27a8.32,8.32,0,0,1,2.34-1.84,7.39,7.39,0,0,1,2.23-.51C30.23,12.57,40.72,26.24,41,38.07a15.51,15.51,0,0,1-1.36,7.12,9.52,9.52,0,0,1-5.18,4.9A8,8,0,0,1,33,50.47Z"/><path class="cls-1" d="M86.12,22.34a7.86,7.86,0,0,1,6.34,0,14.2,14.2,0,0,1,6.62,6.84A24.69,24.69,0,0,1,97.6,53.76c-1.8,2.67-4.35,5.09-7.53,5.63-8.46,1.43-13.63-9.1-14.49-16C74.57,35.31,78.05,25.67,86.12,22.34Z"/><path class="cls-1" d="M11.36,82.48a22.48,22.48,0,0,1-3.69-3c-5-4.93-8.81-11-7.36-18.28a11.11,11.11,0,0,1,2.22-5c3.77-4.51,10.53-3.18,15.16-1a26.41,26.41,0,0,1,11.8,12.24,14.84,14.84,0,0,1,2,7.84A18.38,18.38,0,0,1,30,80.3c-1.26,3.18-2.83,4.42-6.21,5.1C19.53,86.27,15,84.87,11.36,82.48Z"/></svg>